<?xml version="1.0" standalone="no"?>
<!DOCTYPE svg PUBLIC "-//W3C//DTD SVG 20010904//EN"
 "http://www.w3.org/TR/2001/REC-SVG-20010904/DTD/svg10.dtd">
<svg version="1.0" xmlns="http://www.w3.org/2000/svg"
 width="200.000000pt" height="200.000000pt" viewBox="0 0 200.000000 200.000000"
 preserveAspectRatio="xMidYMid meet">
<metadata>
Created by potrace 1.16, written by Peter Selinger 2001-2019
</metadata>
<g transform="translate(0.000000,200.000000) scale(0.100000,-0.100000)"
fill="#c69963" stroke="none">
<path d="M880 1809 c-35 -5 -96 -21 -135 -35 -38 -14 -80 -26 -92 -27 -11 -1
-19 -6 -15 -11 3 -5 -2 -6 -12 -3 -10 4 -15 3 -11 -3 3 -5 -7 -16 -23 -24 -16
-8 -50 -31 -76 -51 -26 -20 -52 -33 -59 -29 -7 4 -9 3 -4 -1 10 -11 -63 -86
-76 -78 -6 3 -7 1 -3 -5 4 -6 -10 -33 -30 -59 -47 -61 -108 -189 -131 -273
-25 -91 -25 -329 0 -420 74 -278 303 -506 583 -581 114 -31 307 -31 419 1 44
12 88 23 97 23 9 1 15 4 12 8 -5 8 66 35 81 30 5 -1 7 1 3 4 -8 9 112 90 127
86 6 -1 7 0 4 3 -8 8 83 103 94 98 4 -2 6 0 5 5 -3 9 45 83 75 114 9 11 17 21
16 24 0 3 13 38 29 78 17 40 36 101 43 137 7 36 16 67 19 70 9 8 6 220 -4 220
-4 0 -6 14 -4 30 3 17 2 30 -2 30 -4 0 -12 24 -19 53 -16 71 -81 203 -131 266
-22 28 -39 51 -36 51 2 0 -15 19 -38 43 -22 23 -43 41 -45 39 -3 -1 -14 6 -25
17 -12 10 -47 35 -78 53 -32 19 -55 38 -50 42 4 4 3 7 -3 6 -25 -5 -46 1 -39
12 4 6 3 9 -2 5 -10 -5 -146 37 -140 44 3 2 -10 4 -27 5 -18 0 -77 3 -132 7
-55 3 -129 1 -165 -4z m550 -239 l0 -120 -35 0 -35 0 0 57 0 58 -180 -180
-180 -180 -80 80 -80 79 -63 -62 -63 -62 -21 22 c-13 12 -24 20 -27 17 -9 -10
24 -104 50 -142 87 -123 277 -144 390 -44 59 51 87 109 92 193 4 60 9 77 28
95 23 21 24 21 31 3 17 -40 8 -167 -15 -218 l-22 -49 100 -102 c85 -86 100
-107 100 -134 0 -43 -38 -81 -82 -81 -28 0 -47 14 -135 102 l-102 102 -38 -18
c-61 -30 -175 -33 -247 -6 -73 28 -148 95 -184 165 -37 72 -42 188 -12 267 76
202 320 278 503 157 l49 -32 -25 -24 -24 -24 -51 32 c-41 25 -65 33 -122 37
-64 4 -76 2 -135 -27 -52 -26 -73 -43 -100 -84 -40 -59 -41 -64 -18 -89 16
-18 19 -16 80 44 l63 63 77 -77 76 -76 154 146 c84 81 153 150 153 154 0 4
-22 8 -50 8 l-50 0 0 35 0 35 115 0 115 0 0 -120z"/>
</g>
</svg>
